<svg xmlns="http://www.w3.org/2000/svg" viewBox="0 0 256 256" role="img" aria-label="Diamond-Class Body procedural asteroid">
  <defs>
    <radialGradient id="bg-asteroid_diamond_class_body" cx="35%" cy="28%" r="80%">
      <stop offset="0" stop-color="#f8fbff" stop-opacity="0.22"/>
      <stop offset="0.45" stop-color="#0b1720" stop-opacity="0.08"/>
      <stop offset="1" stop-color="#05080d" stop-opacity="0.28"/>
    </radialGradient>
    <linearGradient id="rock-asteroid_diamond_class_body" x1="62" y1="48" x2="190" y2="210">
      <stop offset="0" stop-color="#a8bac7"/>
      <stop offset="1" stop-color="#485967"/>
    </linearGradient>
    <filter id="shadow-asteroid_diamond_class_body" x="-25%" y="-25%" width="150%" height="150%">
      <feDropShadow dx="0" dy="12" stdDeviation="12" flood-color="#041015" flood-opacity="0.42"/>
    </filter>
  </defs>
  <rect width="256" height="256" rx="28" fill="url(#bg-asteroid_diamond_class_body)"/>
  <circle cx="128" cy="128" r="102" fill="none" stroke="#f8fbff" stroke-opacity="0.22" stroke-width="2"/>
  <circle cx="128" cy="128" r="78" fill="none" stroke="#fff" stroke-opacity="0.13" stroke-width="2" stroke-dasharray="19 12"/>
  <polygon points="214.4,122.3 189.8,141.9 186.1,162.1 171.7,182.4 162.7,181.8 140.3,192.3 122.5,202.6 103.7,187.0 84.0,189.7 77.0,180.3 59.5,159.0 65.1,141.7 52.6,122.3 65.9,99.9 77.2,79.3 79.6,61.2 103.3,70.5 123.4,55.0 139.4,65.0 170.6,60.6 168.8,72.5 188.8,91.2 193.8,107.9" fill="url(#rock-asteroid_diamond_class_body)" filter="url(#shadow-asteroid_diamond_class_body)"/>
  <polygon points="214.4,122.3 189.8,141.9 186.1,162.1 171.7,182.4 162.7,181.8 140.3,192.3 122.5,202.6 103.7,187.0 84.0,189.7 77.0,180.3 59.5,159.0 65.1,141.7 52.6,122.3 65.9,99.9 77.2,79.3 79.6,61.2 103.3,70.5 123.4,55.0 139.4,65.0 170.6,60.6 168.8,72.5 188.8,91.2 193.8,107.9" fill="none" stroke="#fff" stroke-opacity="0.16" stroke-width="2"/>
  <ellipse cx="180" cy="112" rx="16" ry="10.3" fill="#485967" opacity="0.27" transform="rotate(11 180 112)"/>
<path d="M164 111c11.2 7.2 20.8 8.0 32 0" fill="none" stroke="#fff" stroke-opacity="0.12" stroke-width="3" stroke-linecap="round"/>
<ellipse cx="125" cy="120" rx="13" ry="8.8" fill="#485967" opacity="0.24" transform="rotate(27 125 120)"/>
<path d="M112 119c9.1 5.8500000000000005 16.900000000000002 6.5 26 0" fill="none" stroke="#fff" stroke-opacity="0.12" stroke-width="1" stroke-linecap="round"/>
<ellipse cx="168" cy="127" rx="15" ry="9.7" fill="#485967" opacity="0.33" transform="rotate(0 168 127)"/>
<path d="M153 126c10.5 6.75 19.5 7.5 30 0" fill="none" stroke="#fff" stroke-opacity="0.12" stroke-width="1" stroke-linecap="round"/>
<ellipse cx="114" cy="104" rx="15" ry="11.1" fill="#485967" opacity="0.26" transform="rotate(-27 114 104)"/>
<path d="M99 103c10.5 6.75 19.5 7.5 30 0" fill="none" stroke="#fff" stroke-opacity="0.12" stroke-width="1" stroke-linecap="round"/>
<ellipse cx="98" cy="163" rx="12" ry="10.8" fill="#485967" opacity="0.34" transform="rotate(-9 98 163)"/>
<path d="M86 162c8.399999999999999 5.4 15.600000000000001 6.0 24 0" fill="none" stroke="#fff" stroke-opacity="0.12" stroke-width="1" stroke-linecap="round"/>
<ellipse cx="176" cy="129" rx="7" ry="5.6" fill="#485967" opacity="0.25" transform="rotate(23 176 129)"/>
<path d="M169 128c4.8999999999999995 3.15 9.1 3.5 14 0" fill="none" stroke="#fff" stroke-opacity="0.12" stroke-width="1" stroke-linecap="round"/>
<ellipse cx="87" cy="162" rx="9" ry="6.2" fill="#485967" opacity="0.32" transform="rotate(14 87 162)"/>
<path d="M78 161c6.3 4.05 11.700000000000001 4.5 18 0" fill="none" stroke="#fff" stroke-opacity="0.12" stroke-width="2" stroke-linecap="round"/>
<ellipse cx="139" cy="82" rx="13" ry="11.6" fill="#485967" opacity="0.26" transform="rotate(18 139 82)"/>
<path d="M126 81c9.1 5.8500000000000005 16.900000000000002 6.5 26 0" fill="none" stroke="#fff" stroke-opacity="0.12" stroke-width="3" stroke-linecap="round"/>

  <polygon points="119,115 135,135 124.6,140.0 105.4,137.4" fill="#ffffff" fill-opacity="0.78" stroke="#fff" stroke-opacity="0.34" stroke-width="1.4" transform="rotate(2 119 135)"/>
<polygon points="170,114 183,134 174.6,139.0 159.0,136.4" fill="#c8f4ff" fill-opacity="0.78" stroke="#fff" stroke-opacity="0.34" stroke-width="1.4" transform="rotate(4 170 134)"/>
<polygon points="74,95 88,121 78.9,127.5 62.1,124.1" fill="#f6e8ff" fill-opacity="0.78" stroke="#fff" stroke-opacity="0.34" stroke-width="1.4" transform="rotate(-12 74 121)"/>
<polygon points="112,34 127,66 117.3,74.0 99.3,69.8" fill="#ffffff" fill-opacity="0.78" stroke="#fff" stroke-opacity="0.34" stroke-width="1.4" transform="rotate(1 112 66)"/>
<polygon points="157,131 170,161 161.6,168.5 146.0,164.6" fill="#c8f4ff" fill-opacity="0.78" stroke="#fff" stroke-opacity="0.34" stroke-width="1.4" transform="rotate(14 157 161)"/>

  <path d="M58 188c38 30 95 36 140 3" fill="none" stroke="#f8fbff" stroke-width="6" stroke-linecap="round" stroke-opacity="0.72"/>
  <circle cx="52" cy="58" r="3" fill="#fff" opacity="0.7"/>
  <circle cx="209" cy="64" r="2.5" fill="#fff" opacity="0.55"/>
  <circle cx="213" cy="207" r="2" fill="#fff" opacity="0.5"/>
  <title>Diamond-Class Body</title>
</svg>
