<svg xmlns="http://www.w3.org/2000/svg" viewBox="0 0 256 256" role="img" aria-label="Amethyst Archive Belt procedural asteroid">
  <defs>
    <radialGradient id="bg-asteroid_amethyst_archive_belt" cx="35%" cy="28%" r="80%">
      <stop offset="0" stop-color="#cf8dff" stop-opacity="0.22"/>
      <stop offset="0.45" stop-color="#0b1720" stop-opacity="0.08"/>
      <stop offset="1" stop-color="#05080d" stop-opacity="0.28"/>
    </radialGradient>
    <linearGradient id="rock-asteroid_amethyst_archive_belt" x1="62" y1="48" x2="190" y2="210">
      <stop offset="0" stop-color="#6b5a8e"/>
      <stop offset="1" stop-color="#2e214c"/>
    </linearGradient>
    <filter id="shadow-asteroid_amethyst_archive_belt" x="-25%" y="-25%" width="150%" height="150%">
      <feDropShadow dx="0" dy="12" stdDeviation="12" flood-color="#041015" flood-opacity="0.42"/>
    </filter>
  </defs>
  <rect width="256" height="256" rx="28" fill="url(#bg-asteroid_amethyst_archive_belt)"/>
  <circle cx="128" cy="128" r="102" fill="none" stroke="#cf8dff" stroke-opacity="0.22" stroke-width="2"/>
  <circle cx="128" cy="128" r="78" fill="none" stroke="#fff" stroke-opacity="0.13" stroke-width="2" stroke-dasharray="25 12"/>
  <polygon points="187.7,125.1 182.1,144.0 199.1,164.8 173.4,172.1 158.9,188.7 152.8,188.5 127.3,187.0 111.3,184.6 95.8,200.6 75.0,175.6 58.9,163.5 47.9,151.5 58.7,130.7 69.7,114.9 52.7,94.2 87.4,88.5 99.2,69.7 115.3,64.4 133.4,66.0 150.6,65.4 161.8,63.4 170.1,70.8 191.6,88.3 187.5,113.8" fill="url(#rock-asteroid_amethyst_archive_belt)" filter="url(#shadow-asteroid_amethyst_archive_belt)"/>
  <polygon points="187.7,125.1 182.1,144.0 199.1,164.8 173.4,172.1 158.9,188.7 152.8,188.5 127.3,187.0 111.3,184.6 95.8,200.6 75.0,175.6 58.9,163.5 47.9,151.5 58.7,130.7 69.7,114.9 52.7,94.2 87.4,88.5 99.2,69.7 115.3,64.4 133.4,66.0 150.6,65.4 161.8,63.4 170.1,70.8 191.6,88.3 187.5,113.8" fill="none" stroke="#fff" stroke-opacity="0.16" stroke-width="2"/>
  <ellipse cx="112" cy="168" rx="17" ry="12.4" fill="#2e214c" opacity="0.24" transform="rotate(8 112 168)"/>
<path d="M95 167c11.899999999999999 7.65 22.1 8.5 34 0" fill="none" stroke="#fff" stroke-opacity="0.12" stroke-width="3" stroke-linecap="round"/>
<ellipse cx="72" cy="147" rx="12" ry="10.3" fill="#2e214c" opacity="0.32" transform="rotate(-26 72 147)"/>
<path d="M60 146c8.399999999999999 5.4 15.600000000000001 6.0 24 0" fill="none" stroke="#fff" stroke-opacity="0.12" stroke-width="3" stroke-linecap="round"/>
<ellipse cx="99" cy="100" rx="8" ry="6.2" fill="#2e214c" opacity="0.31" transform="rotate(-1 99 100)"/>
<path d="M91 99c5.6 3.6 10.4 4.0 16 0" fill="none" stroke="#fff" stroke-opacity="0.12" stroke-width="2" stroke-linecap="round"/>
<ellipse cx="147" cy="150" rx="17" ry="13.2" fill="#2e214c" opacity="0.22" transform="rotate(13 147 150)"/>
<path d="M130 149c11.899999999999999 7.65 22.1 8.5 34 0" fill="none" stroke="#fff" stroke-opacity="0.12" stroke-width="1" stroke-linecap="round"/>
<ellipse cx="81" cy="155" rx="7" ry="4.1" fill="#2e214c" opacity="0.25" transform="rotate(18 81 155)"/>
<path d="M74 154c4.8999999999999995 3.15 9.1 3.5 14 0" fill="none" stroke="#fff" stroke-opacity="0.12" stroke-width="1" stroke-linecap="round"/>
<ellipse cx="171" cy="122" rx="8" ry="6.2" fill="#2e214c" opacity="0.23" transform="rotate(-14 171 122)"/>
<path d="M163 121c5.6 3.6 10.4 4.0 16 0" fill="none" stroke="#fff" stroke-opacity="0.12" stroke-width="3" stroke-linecap="round"/>
<ellipse cx="153" cy="143" rx="17" ry="12.3" fill="#2e214c" opacity="0.3" transform="rotate(-24 153 143)"/>
<path d="M136 142c11.899999999999999 7.65 22.1 8.5 34 0" fill="none" stroke="#fff" stroke-opacity="0.12" stroke-width="2" stroke-linecap="round"/>
<ellipse cx="142" cy="133" rx="12" ry="9.7" fill="#2e214c" opacity="0.37" transform="rotate(-21 142 133)"/>
<path d="M130 132c8.399999999999999 5.4 15.600000000000001 6.0 24 0" fill="none" stroke="#fff" stroke-opacity="0.12" stroke-width="2" stroke-linecap="round"/>

  <polygon points="97,106 107,135 100.5,142.3 88.5,138.5" fill="#d6b2ff" fill-opacity="0.78" stroke="#fff" stroke-opacity="0.34" stroke-width="1.4" transform="rotate(-21 97 135)"/>
<polygon points="125,53 139,85 129.9,93.0 113.1,88.8" fill="#a56dff" fill-opacity="0.78" stroke="#fff" stroke-opacity="0.34" stroke-width="1.4" transform="rotate(13 125 85)"/>
<polygon points="119,120 130,149 122.9,156.3 109.7,152.5" fill="#f0dcff" fill-opacity="0.78" stroke="#fff" stroke-opacity="0.34" stroke-width="1.4" transform="rotate(1 119 149)"/>

  <path d="M58 188c38 30 95 36 140 3" fill="none" stroke="#cf8dff" stroke-width="6" stroke-linecap="round" stroke-opacity="0.72"/>
  <circle cx="52" cy="58" r="3" fill="#fff" opacity="0.7"/>
  <circle cx="209" cy="64" r="2.5" fill="#fff" opacity="0.55"/>
  <circle cx="213" cy="207" r="2" fill="#fff" opacity="0.5"/>
  <title>Amethyst Archive Belt</title>
</svg>
