<svg xmlns="http://www.w3.org/2000/svg" viewBox="0 0 256 256" role="img" aria-label="Quartz Belt procedural asteroid">
  <defs>
    <radialGradient id="bg-asteroid_quartz_belt" cx="35%" cy="28%" r="80%">
      <stop offset="0" stop-color="#6ee7ff" stop-opacity="0.22"/>
      <stop offset="0.45" stop-color="#0b1720" stop-opacity="0.08"/>
      <stop offset="1" stop-color="#05080d" stop-opacity="0.28"/>
    </radialGradient>
    <linearGradient id="rock-asteroid_quartz_belt" x1="62" y1="48" x2="190" y2="210">
      <stop offset="0" stop-color="#7d8d98"/>
      <stop offset="1" stop-color="#3f505d"/>
    </linearGradient>
    <filter id="shadow-asteroid_quartz_belt" x="-25%" y="-25%" width="150%" height="150%">
      <feDropShadow dx="0" dy="12" stdDeviation="12" flood-color="#041015" flood-opacity="0.42"/>
    </filter>
  </defs>
  <rect width="256" height="256" rx="28" fill="url(#bg-asteroid_quartz_belt)"/>
  <circle cx="128" cy="128" r="102" fill="none" stroke="#6ee7ff" stroke-opacity="0.22" stroke-width="2"/>
  <circle cx="128" cy="128" r="78" fill="none" stroke="#fff" stroke-opacity="0.13" stroke-width="2" stroke-dasharray="16 12"/>
  <polygon points="203.3,130.4 182.5,149.5 179.2,169.0 169.3,181.3 146.0,189.5 121.1,202.7 90.9,188.7 69.9,176.2 70.2,150.4 43.9,124.7 67.3,99.4 69.3,91.2 101.9,53.8 112.4,58.6 137.2,56.6 173.2,58.7 184.6,78.3 207.0,104.3" fill="url(#rock-asteroid_quartz_belt)" filter="url(#shadow-asteroid_quartz_belt)"/>
  <polygon points="203.3,130.4 182.5,149.5 179.2,169.0 169.3,181.3 146.0,189.5 121.1,202.7 90.9,188.7 69.9,176.2 70.2,150.4 43.9,124.7 67.3,99.4 69.3,91.2 101.9,53.8 112.4,58.6 137.2,56.6 173.2,58.7 184.6,78.3 207.0,104.3" fill="none" stroke="#fff" stroke-opacity="0.16" stroke-width="2"/>
  <ellipse cx="83" cy="78" rx="7" ry="4.6" fill="#3f505d" opacity="0.36" transform="rotate(18 83 78)"/>
<path d="M76 77c4.8999999999999995 3.15 9.1 3.5 14 0" fill="none" stroke="#fff" stroke-opacity="0.12" stroke-width="3" stroke-linecap="round"/>
<ellipse cx="155" cy="149" rx="8" ry="4.7" fill="#3f505d" opacity="0.25" transform="rotate(-2 155 149)"/>
<path d="M147 148c5.6 3.6 10.4 4.0 16 0" fill="none" stroke="#fff" stroke-opacity="0.12" stroke-width="3" stroke-linecap="round"/>
<ellipse cx="104" cy="106" rx="7" ry="6.1" fill="#3f505d" opacity="0.35" transform="rotate(-11 104 106)"/>
<path d="M97 105c4.8999999999999995 3.15 9.1 3.5 14 0" fill="none" stroke="#fff" stroke-opacity="0.12" stroke-width="3" stroke-linecap="round"/>
<ellipse cx="114" cy="159" rx="16" ry="12.8" fill="#3f505d" opacity="0.24" transform="rotate(19 114 159)"/>
<path d="M98 158c11.2 7.2 20.8 8.0 32 0" fill="none" stroke="#fff" stroke-opacity="0.12" stroke-width="3" stroke-linecap="round"/>
<ellipse cx="186" cy="158" rx="14" ry="8.3" fill="#3f505d" opacity="0.29" transform="rotate(17 186 158)"/>
<path d="M172 157c9.799999999999999 6.3 18.2 7.0 28 0" fill="none" stroke="#fff" stroke-opacity="0.12" stroke-width="2" stroke-linecap="round"/>
<ellipse cx="150" cy="150" rx="16" ry="10.4" fill="#3f505d" opacity="0.38" transform="rotate(-26 150 150)"/>
<path d="M134 149c11.2 7.2 20.8 8.0 32 0" fill="none" stroke="#fff" stroke-opacity="0.12" stroke-width="1" stroke-linecap="round"/>
<ellipse cx="167" cy="95" rx="9" ry="7.0" fill="#3f505d" opacity="0.37" transform="rotate(13 167 95)"/>
<path d="M158 94c6.3 4.05 11.700000000000001 4.5 18 0" fill="none" stroke="#fff" stroke-opacity="0.12" stroke-width="1" stroke-linecap="round"/>
<ellipse cx="112" cy="146" rx="15" ry="9.1" fill="#3f505d" opacity="0.25" transform="rotate(0 112 146)"/>
<path d="M97 145c10.5 6.75 19.5 7.5 30 0" fill="none" stroke="#fff" stroke-opacity="0.12" stroke-width="3" stroke-linecap="round"/>
<ellipse cx="127" cy="172" rx="13" ry="8.0" fill="#3f505d" opacity="0.23" transform="rotate(-21 127 172)"/>
<path d="M114 171c9.1 5.8500000000000005 16.900000000000002 6.5 26 0" fill="none" stroke="#fff" stroke-opacity="0.12" stroke-width="3" stroke-linecap="round"/>

  <polygon points="125,44 133,72 127.8,79.0 118.2,75.4" fill="#d8fbff" fill-opacity="0.78" stroke="#fff" stroke-opacity="0.34" stroke-width="1.4" transform="rotate(-6 125 72)"/>
<polygon points="130,59 138,77 132.8,81.5 123.2,79.2" fill="#a7f3ff" fill-opacity="0.78" stroke="#fff" stroke-opacity="0.34" stroke-width="1.4" transform="rotate(23 130 77)"/>
<polygon points="172,144 188,170 177.6,176.5 158.4,173.1" fill="#8dd0f7" fill-opacity="0.78" stroke="#fff" stroke-opacity="0.34" stroke-width="1.4" transform="rotate(-24 172 170)"/>

  <path d="M58 188c38 30 95 36 140 3" fill="none" stroke="#6ee7ff" stroke-width="6" stroke-linecap="round" stroke-opacity="0.72"/>
  <circle cx="52" cy="58" r="3" fill="#fff" opacity="0.7"/>
  <circle cx="209" cy="64" r="2.5" fill="#fff" opacity="0.55"/>
  <circle cx="213" cy="207" r="2" fill="#fff" opacity="0.5"/>
  <title>Quartz Belt</title>
</svg>
