<svg xmlns="http://www.w3.org/2000/svg" viewBox="0 0 256 256" role="img" aria-label="Iron Tumblers procedural asteroid">
  <defs>
    <radialGradient id="bg-asteroid_iron_tumblers" cx="35%" cy="28%" r="80%">
      <stop offset="0" stop-color="#ffb66e" stop-opacity="0.22"/>
      <stop offset="0.45" stop-color="#0b1720" stop-opacity="0.08"/>
      <stop offset="1" stop-color="#05080d" stop-opacity="0.28"/>
    </radialGradient>
    <linearGradient id="rock-asteroid_iron_tumblers" x1="62" y1="48" x2="190" y2="210">
      <stop offset="0" stop-color="#94634f"/>
      <stop offset="1" stop-color="#4c3029"/>
    </linearGradient>
    <filter id="shadow-asteroid_iron_tumblers" x="-25%" y="-25%" width="150%" height="150%">
      <feDropShadow dx="0" dy="12" stdDeviation="12" flood-color="#041015" flood-opacity="0.42"/>
    </filter>
  </defs>
  <rect width="256" height="256" rx="28" fill="url(#bg-asteroid_iron_tumblers)"/>
  <circle cx="128" cy="128" r="102" fill="none" stroke="#ffb66e" stroke-opacity="0.22" stroke-width="2"/>
  <circle cx="128" cy="128" r="78" fill="none" stroke="#fff" stroke-opacity="0.13" stroke-width="2" stroke-dasharray="23 12"/>
  <polygon points="200.4,124.2 197.5,150.2 184.7,164.4 171.6,188.4 146.3,194.9 128.1,196.9 118.3,203.9 97.6,181.3 83.0,167.1 60.2,164.7 61.9,136.4 74.3,121.7 75.7,102.9 75.0,85.5 90.9,72.3 119.0,71.0 129.6,72.1 149.9,73.1 166.5,68.5 192.0,95.3 198.2,106.1" fill="url(#rock-asteroid_iron_tumblers)" filter="url(#shadow-asteroid_iron_tumblers)"/>
  <polygon points="200.4,124.2 197.5,150.2 184.7,164.4 171.6,188.4 146.3,194.9 128.1,196.9 118.3,203.9 97.6,181.3 83.0,167.1 60.2,164.7 61.9,136.4 74.3,121.7 75.7,102.9 75.0,85.5 90.9,72.3 119.0,71.0 129.6,72.1 149.9,73.1 166.5,68.5 192.0,95.3 198.2,106.1" fill="none" stroke="#fff" stroke-opacity="0.16" stroke-width="2"/>
  <ellipse cx="146" cy="176" rx="10" ry="7.4" fill="#4c3029" opacity="0.28" transform="rotate(-6 146 176)"/>
<path d="M136 175c7.0 4.5 13.0 5.0 20 0" fill="none" stroke="#fff" stroke-opacity="0.12" stroke-width="2" stroke-linecap="round"/>
<ellipse cx="138" cy="108" rx="10" ry="8.2" fill="#4c3029" opacity="0.28" transform="rotate(-11 138 108)"/>
<path d="M128 107c7.0 4.5 13.0 5.0 20 0" fill="none" stroke="#fff" stroke-opacity="0.12" stroke-width="3" stroke-linecap="round"/>
<ellipse cx="135" cy="177" rx="10" ry="8.2" fill="#4c3029" opacity="0.31" transform="rotate(27 135 177)"/>
<path d="M125 176c7.0 4.5 13.0 5.0 20 0" fill="none" stroke="#fff" stroke-opacity="0.12" stroke-width="3" stroke-linecap="round"/>
<ellipse cx="173" cy="99" rx="12" ry="7.2" fill="#4c3029" opacity="0.29" transform="rotate(-5 173 99)"/>
<path d="M161 98c8.399999999999999 5.4 15.600000000000001 6.0 24 0" fill="none" stroke="#fff" stroke-opacity="0.12" stroke-width="3" stroke-linecap="round"/>
<ellipse cx="179" cy="116" rx="15" ry="9.1" fill="#4c3029" opacity="0.25" transform="rotate(-17 179 116)"/>
<path d="M164 115c10.5 6.75 19.5 7.5 30 0" fill="none" stroke="#fff" stroke-opacity="0.12" stroke-width="2" stroke-linecap="round"/>
<ellipse cx="77" cy="134" rx="9" ry="6.8" fill="#4c3029" opacity="0.26" transform="rotate(11 77 134)"/>
<path d="M68 133c6.3 4.05 11.700000000000001 4.5 18 0" fill="none" stroke="#fff" stroke-opacity="0.12" stroke-width="3" stroke-linecap="round"/>
<ellipse cx="178" cy="141" rx="14" ry="10.9" fill="#4c3029" opacity="0.37" transform="rotate(-21 178 141)"/>
<path d="M164 140c9.799999999999999 6.3 18.2 7.0 28 0" fill="none" stroke="#fff" stroke-opacity="0.12" stroke-width="3" stroke-linecap="round"/>
<ellipse cx="172" cy="132" rx="13" ry="8.6" fill="#4c3029" opacity="0.26" transform="rotate(-20 172 132)"/>
<path d="M159 131c9.1 5.8500000000000005 16.900000000000002 6.5 26 0" fill="none" stroke="#fff" stroke-opacity="0.12" stroke-width="2" stroke-linecap="round"/>
<ellipse cx="170" cy="97" rx="7" ry="5.6" fill="#4c3029" opacity="0.27" transform="rotate(-20 170 97)"/>
<path d="M163 96c4.8999999999999995 3.15 9.1 3.5 14 0" fill="none" stroke="#fff" stroke-opacity="0.12" stroke-width="3" stroke-linecap="round"/>

  <polygon points="166,114 182,140 171.6,146.5 152.4,143.1" fill="#d7a17e" fill-opacity="0.78" stroke="#fff" stroke-opacity="0.34" stroke-width="1.4" transform="rotate(18 166 140)"/>
<polygon points="107,83 118,108 110.9,114.3 97.7,111.0" fill="#bc6e4f" fill-opacity="0.78" stroke="#fff" stroke-opacity="0.34" stroke-width="1.4" transform="rotate(-15 107 108)"/>
<polygon points="105,78 115,98 108.5,103.0 96.5,100.4" fill="#f1d0ab" fill-opacity="0.78" stroke="#fff" stroke-opacity="0.34" stroke-width="1.4" transform="rotate(-11 105 98)"/>
<polygon points="93,39 104,72 96.9,80.3 83.7,76.0" fill="#d7a17e" fill-opacity="0.78" stroke="#fff" stroke-opacity="0.34" stroke-width="1.4" transform="rotate(-7 93 72)"/>
<polygon points="109,111 120,133 112.9,138.5 99.7,135.6" fill="#bc6e4f" fill-opacity="0.78" stroke="#fff" stroke-opacity="0.34" stroke-width="1.4" transform="rotate(-8 109 133)"/>
<polygon points="150,82 165,100 155.3,104.5 137.3,102.2" fill="#f1d0ab" fill-opacity="0.78" stroke="#fff" stroke-opacity="0.34" stroke-width="1.4" transform="rotate(-2 150 100)"/>

  <path d="M58 188c38 30 95 36 140 3" fill="none" stroke="#ffb66e" stroke-width="6" stroke-linecap="round" stroke-opacity="0.72"/>
  <circle cx="52" cy="58" r="3" fill="#fff" opacity="0.7"/>
  <circle cx="209" cy="64" r="2.5" fill="#fff" opacity="0.55"/>
  <circle cx="213" cy="207" r="2" fill="#fff" opacity="0.5"/>
  <title>Iron Tumblers</title>
</svg>
