<svg xmlns="http://www.w3.org/2000/svg" viewBox="0 0 256 256" role="img" aria-label="Ember Rocks procedural asteroid">
  <defs>
    <radialGradient id="bg-asteroid_ember_rocks" cx="35%" cy="28%" r="80%">
      <stop offset="0" stop-color="#ff6f3d" stop-opacity="0.22"/>
      <stop offset="0.45" stop-color="#0b1720" stop-opacity="0.08"/>
      <stop offset="1" stop-color="#05080d" stop-opacity="0.28"/>
    </radialGradient>
    <linearGradient id="rock-asteroid_ember_rocks" x1="62" y1="48" x2="190" y2="210">
      <stop offset="0" stop-color="#884839"/>
      <stop offset="1" stop-color="#341a1a"/>
    </linearGradient>
    <filter id="shadow-asteroid_ember_rocks" x="-25%" y="-25%" width="150%" height="150%">
      <feDropShadow dx="0" dy="12" stdDeviation="12" flood-color="#041015" flood-opacity="0.42"/>
    </filter>
  </defs>
  <rect width="256" height="256" rx="28" fill="url(#bg-asteroid_ember_rocks)"/>
  <circle cx="128" cy="128" r="102" fill="none" stroke="#ff6f3d" stroke-opacity="0.22" stroke-width="2"/>
  <circle cx="128" cy="128" r="78" fill="none" stroke="#fff" stroke-opacity="0.13" stroke-width="2" stroke-dasharray="16 12"/>
  <polygon points="182.6,123.3 187.6,141.9 173.1,166.9 169.2,181.6 150.0,199.8 139.2,186.2 116.7,202.5 95.6,179.1 80.5,190.7 84.2,163.2 55.3,149.3 61.8,126.2 67.1,112.3 71.4,85.0 81.4,77.5 105.8,56.6 116.8,68.3 133.5,61.5 158.7,68.3 174.3,67.4 188.4,94.8 191.0,107.8" fill="url(#rock-asteroid_ember_rocks)" filter="url(#shadow-asteroid_ember_rocks)"/>
  <polygon points="182.6,123.3 187.6,141.9 173.1,166.9 169.2,181.6 150.0,199.8 139.2,186.2 116.7,202.5 95.6,179.1 80.5,190.7 84.2,163.2 55.3,149.3 61.8,126.2 67.1,112.3 71.4,85.0 81.4,77.5 105.8,56.6 116.8,68.3 133.5,61.5 158.7,68.3 174.3,67.4 188.4,94.8 191.0,107.8" fill="none" stroke="#fff" stroke-opacity="0.16" stroke-width="2"/>
  <ellipse cx="152" cy="72" rx="9" ry="6.0" fill="#341a1a" opacity="0.3" transform="rotate(-21 152 72)"/>
<path d="M143 71c6.3 4.05 11.700000000000001 4.5 18 0" fill="none" stroke="#fff" stroke-opacity="0.12" stroke-width="3" stroke-linecap="round"/>
<ellipse cx="172" cy="139" rx="12" ry="8.9" fill="#341a1a" opacity="0.34" transform="rotate(13 172 139)"/>
<path d="M160 138c8.399999999999999 5.4 15.600000000000001 6.0 24 0" fill="none" stroke="#fff" stroke-opacity="0.12" stroke-width="2" stroke-linecap="round"/>
<ellipse cx="172" cy="152" rx="13" ry="9.2" fill="#341a1a" opacity="0.24" transform="rotate(14 172 152)"/>
<path d="M159 151c9.1 5.8500000000000005 16.900000000000002 6.5 26 0" fill="none" stroke="#fff" stroke-opacity="0.12" stroke-width="1" stroke-linecap="round"/>
<ellipse cx="116" cy="138" rx="9" ry="7.9" fill="#341a1a" opacity="0.29" transform="rotate(-12 116 138)"/>
<path d="M107 137c6.3 4.05 11.700000000000001 4.5 18 0" fill="none" stroke="#fff" stroke-opacity="0.12" stroke-width="1" stroke-linecap="round"/>
<ellipse cx="93" cy="116" rx="13" ry="8.7" fill="#341a1a" opacity="0.23" transform="rotate(-5 93 116)"/>
<path d="M80 115c9.1 5.8500000000000005 16.900000000000002 6.5 26 0" fill="none" stroke="#fff" stroke-opacity="0.12" stroke-width="1" stroke-linecap="round"/>
<ellipse cx="162" cy="76" rx="8" ry="5.5" fill="#341a1a" opacity="0.24" transform="rotate(4 162 76)"/>
<path d="M154 75c5.6 3.6 10.4 4.0 16 0" fill="none" stroke="#fff" stroke-opacity="0.12" stroke-width="1" stroke-linecap="round"/>
<ellipse cx="94" cy="106" rx="13" ry="11.0" fill="#341a1a" opacity="0.38" transform="rotate(21 94 106)"/>
<path d="M81 105c9.1 5.8500000000000005 16.900000000000002 6.5 26 0" fill="none" stroke="#fff" stroke-opacity="0.12" stroke-width="3" stroke-linecap="round"/>
<ellipse cx="100" cy="105" rx="8" ry="6.2" fill="#341a1a" opacity="0.36" transform="rotate(20 100 105)"/>
<path d="M92 104c5.6 3.6 10.4 4.0 16 0" fill="none" stroke="#fff" stroke-opacity="0.12" stroke-width="2" stroke-linecap="round"/>
<ellipse cx="174" cy="158" rx="13" ry="8.1" fill="#341a1a" opacity="0.25" transform="rotate(-1 174 158)"/>
<path d="M161 157c9.1 5.8500000000000005 16.900000000000002 6.5 26 0" fill="none" stroke="#fff" stroke-opacity="0.12" stroke-width="3" stroke-linecap="round"/>

  <polygon points="170,65 182,96 174.2,103.8 159.8,99.7" fill="#ffcc66" fill-opacity="0.78" stroke="#fff" stroke-opacity="0.34" stroke-width="1.4" transform="rotate(17 170 96)"/>
<polygon points="102,40 115,69 106.6,76.3 91.0,72.5" fill="#ff8a4b" fill-opacity="0.78" stroke="#fff" stroke-opacity="0.34" stroke-width="1.4" transform="rotate(24 102 69)"/>
<polygon points="168,147 181,172 172.6,178.3 157.0,175.0" fill="#ffe2a6" fill-opacity="0.78" stroke="#fff" stroke-opacity="0.34" stroke-width="1.4" transform="rotate(-6 168 172)"/>

  <path d="M58 188c38 30 95 36 140 3" fill="none" stroke="#ff6f3d" stroke-width="6" stroke-linecap="round" stroke-opacity="0.72"/>
  <circle cx="52" cy="58" r="3" fill="#fff" opacity="0.7"/>
  <circle cx="209" cy="64" r="2.5" fill="#fff" opacity="0.55"/>
  <circle cx="213" cy="207" r="2" fill="#fff" opacity="0.5"/>
  <title>Ember Rocks</title>
</svg>
