<svg xmlns="http://www.w3.org/2000/svg" style="display:none">
<symbol id="asteroid_starter_rubble" viewBox="0 0 256 256">
  <defs>
    <radialGradient id="bg-asteroid_starter_rubble" cx="35%" cy="28%" r="80%">
      <stop offset="0" stop-color="#42d998" stop-opacity="0.22"/>
      <stop offset="0.45" stop-color="#0b1720" stop-opacity="0.08"/>
      <stop offset="1" stop-color="#05080d" stop-opacity="0.28"/>
    </radialGradient>
    <linearGradient id="rock-asteroid_starter_rubble" x1="62" y1="48" x2="190" y2="210">
      <stop offset="0" stop-color="#8d8174"/>
      <stop offset="1" stop-color="#544d45"/>
    </linearGradient>
    <filter id="shadow-asteroid_starter_rubble" x="-25%" y="-25%" width="150%" height="150%">
      <feDropShadow dx="0" dy="12" stdDeviation="12" flood-color="#041015" flood-opacity="0.42"/>
    </filter>
  </defs>
  <rect width="256" height="256" rx="28" fill="url(#bg-asteroid_starter_rubble)"/>
  <circle cx="128" cy="128" r="102" fill="none" stroke="#42d998" stroke-opacity="0.22" stroke-width="2"/>
  <circle cx="128" cy="128" r="78" fill="none" stroke="#fff" stroke-opacity="0.13" stroke-width="2" stroke-dasharray="24 12"/>
  <polygon points="192.3,124.9 207.6,152.3 185.3,172.2 174.9,180.9 161.5,186.2 148.1,189.8 121.7,202.4 102.7,205.7 81.7,187.4 75.9,175.8 53.4,155.3 43.9,141.4 45.1,121.4 52.3,98.7 64.1,87.9 73.9,67.9 95.2,51.8 126.0,44.2 145.3,61.6 168.9,53.4 179.3,68.3 201.2,92.7 205.8,110.4" fill="url(#rock-asteroid_starter_rubble)" filter="url(#shadow-asteroid_starter_rubble)"/>
  <polygon points="192.3,124.9 207.6,152.3 185.3,172.2 174.9,180.9 161.5,186.2 148.1,189.8 121.7,202.4 102.7,205.7 81.7,187.4 75.9,175.8 53.4,155.3 43.9,141.4 45.1,121.4 52.3,98.7 64.1,87.9 73.9,67.9 95.2,51.8 126.0,44.2 145.3,61.6 168.9,53.4 179.3,68.3 201.2,92.7 205.8,110.4" fill="none" stroke="#fff" stroke-opacity="0.16" stroke-width="2"/>
  <ellipse cx="115" cy="177" rx="7" ry="5.4" fill="#544d45" opacity="0.26" transform="rotate(15 115 177)"/>
<path d="M108 176c4.8999999999999995 3.15 9.1 3.5 14 0" fill="none" stroke="#fff" stroke-opacity="0.12" stroke-width="2" stroke-linecap="round"/>
<ellipse cx="133" cy="114" rx="13" ry="8.5" fill="#544d45" opacity="0.24" transform="rotate(-19 133 114)"/>
<path d="M120 113c9.1 5.8500000000000005 16.900000000000002 6.5 26 0" fill="none" stroke="#fff" stroke-opacity="0.12" stroke-width="3" stroke-linecap="round"/>
<ellipse cx="186" cy="107" rx="14" ry="8.7" fill="#544d45" opacity="0.26" transform="rotate(-26 186 107)"/>
<path d="M172 106c9.799999999999999 6.3 18.2 7.0 28 0" fill="none" stroke="#fff" stroke-opacity="0.12" stroke-width="2" stroke-linecap="round"/>
<ellipse cx="142" cy="130" rx="17" ry="13.8" fill="#544d45" opacity="0.22" transform="rotate(-6 142 130)"/>
<path d="M125 129c11.899999999999999 7.65 22.1 8.5 34 0" fill="none" stroke="#fff" stroke-opacity="0.12" stroke-width="3" stroke-linecap="round"/>
<ellipse cx="172" cy="132" rx="10" ry="7.4" fill="#544d45" opacity="0.23" transform="rotate(18 172 132)"/>
<path d="M162 131c7.0 4.5 13.0 5.0 20 0" fill="none" stroke="#fff" stroke-opacity="0.12" stroke-width="2" stroke-linecap="round"/>
<ellipse cx="157" cy="119" rx="12" ry="7.3" fill="#544d45" opacity="0.37" transform="rotate(28 157 119)"/>
<path d="M145 118c8.399999999999999 5.4 15.600000000000001 6.0 24 0" fill="none" stroke="#fff" stroke-opacity="0.12" stroke-width="3" stroke-linecap="round"/>
<ellipse cx="179" cy="90" rx="9" ry="6.4" fill="#544d45" opacity="0.22" transform="rotate(19 179 90)"/>
<path d="M170 89c6.3 4.05 11.700000000000001 4.5 18 0" fill="none" stroke="#fff" stroke-opacity="0.12" stroke-width="3" stroke-linecap="round"/>
<ellipse cx="134" cy="156" rx="10" ry="6.1" fill="#544d45" opacity="0.32" transform="rotate(6 134 156)"/>
<path d="M124 155c7.0 4.5 13.0 5.0 20 0" fill="none" stroke="#fff" stroke-opacity="0.12" stroke-width="3" stroke-linecap="round"/>
<ellipse cx="169" cy="132" rx="15" ry="9.2" fill="#544d45" opacity="0.31" transform="rotate(-6 169 132)"/>
<path d="M154 131c10.5 6.75 19.5 7.5 30 0" fill="none" stroke="#fff" stroke-opacity="0.12" stroke-width="1" stroke-linecap="round"/>

  <polygon points="129,104 144,136 134.3,144.0 116.3,139.8" fill="#b7c0bd" fill-opacity="0.78" stroke="#fff" stroke-opacity="0.34" stroke-width="1.4" transform="rotate(-1 129 136)"/>
<polygon points="139,114 151,150 143.2,159.0 128.8,154.3" fill="#7f8f89" fill-opacity="0.78" stroke="#fff" stroke-opacity="0.34" stroke-width="1.4" transform="rotate(21 139 150)"/>
<polygon points="170,107 180,139 173.5,147.0 161.5,142.8" fill="#d8c5a5" fill-opacity="0.78" stroke="#fff" stroke-opacity="0.34" stroke-width="1.4" transform="rotate(-3 170 139)"/>
<polygon points="160,54 168,87 162.8,95.3 153.2,91.0" fill="#b7c0bd" fill-opacity="0.78" stroke="#fff" stroke-opacity="0.34" stroke-width="1.4" transform="rotate(-17 160 87)"/>
<polygon points="156,114 164,135 158.8,140.3 149.2,137.5" fill="#7f8f89" fill-opacity="0.78" stroke="#fff" stroke-opacity="0.34" stroke-width="1.4" transform="rotate(-10 156 135)"/>

  <path d="M58 188c38 30 95 36 140 3" fill="none" stroke="#42d998" stroke-width="6" stroke-linecap="round" stroke-opacity="0.72"/>
  <circle cx="52" cy="58" r="3" fill="#fff" opacity="0.7"/>
  <circle cx="209" cy="64" r="2.5" fill="#fff" opacity="0.55"/>
  <circle cx="213" cy="207" r="2" fill="#fff" opacity="0.5"/>
  <title>Starter Rubble</title>
</symbol>
<symbol id="asteroid_quartz_belt" viewBox="0 0 256 256">
  <defs>
    <radialGradient id="bg-asteroid_quartz_belt" cx="35%" cy="28%" r="80%">
      <stop offset="0" stop-color="#6ee7ff" stop-opacity="0.22"/>
      <stop offset="0.45" stop-color="#0b1720" stop-opacity="0.08"/>
      <stop offset="1" stop-color="#05080d" stop-opacity="0.28"/>
    </radialGradient>
    <linearGradient id="rock-asteroid_quartz_belt" x1="62" y1="48" x2="190" y2="210">
      <stop offset="0" stop-color="#7d8d98"/>
      <stop offset="1" stop-color="#3f505d"/>
    </linearGradient>
    <filter id="shadow-asteroid_quartz_belt" x="-25%" y="-25%" width="150%" height="150%">
      <feDropShadow dx="0" dy="12" stdDeviation="12" flood-color="#041015" flood-opacity="0.42"/>
    </filter>
  </defs>
  <rect width="256" height="256" rx="28" fill="url(#bg-asteroid_quartz_belt)"/>
  <circle cx="128" cy="128" r="102" fill="none" stroke="#6ee7ff" stroke-opacity="0.22" stroke-width="2"/>
  <circle cx="128" cy="128" r="78" fill="none" stroke="#fff" stroke-opacity="0.13" stroke-width="2" stroke-dasharray="16 12"/>
  <polygon points="203.3,130.4 182.5,149.5 179.2,169.0 169.3,181.3 146.0,189.5 121.1,202.7 90.9,188.7 69.9,176.2 70.2,150.4 43.9,124.7 67.3,99.4 69.3,91.2 101.9,53.8 112.4,58.6 137.2,56.6 173.2,58.7 184.6,78.3 207.0,104.3" fill="url(#rock-asteroid_quartz_belt)" filter="url(#shadow-asteroid_quartz_belt)"/>
  <polygon points="203.3,130.4 182.5,149.5 179.2,169.0 169.3,181.3 146.0,189.5 121.1,202.7 90.9,188.7 69.9,176.2 70.2,150.4 43.9,124.7 67.3,99.4 69.3,91.2 101.9,53.8 112.4,58.6 137.2,56.6 173.2,58.7 184.6,78.3 207.0,104.3" fill="none" stroke="#fff" stroke-opacity="0.16" stroke-width="2"/>
  <ellipse cx="83" cy="78" rx="7" ry="4.6" fill="#3f505d" opacity="0.36" transform="rotate(18 83 78)"/>
<path d="M76 77c4.8999999999999995 3.15 9.1 3.5 14 0" fill="none" stroke="#fff" stroke-opacity="0.12" stroke-width="3" stroke-linecap="round"/>
<ellipse cx="155" cy="149" rx="8" ry="4.7" fill="#3f505d" opacity="0.25" transform="rotate(-2 155 149)"/>
<path d="M147 148c5.6 3.6 10.4 4.0 16 0" fill="none" stroke="#fff" stroke-opacity="0.12" stroke-width="3" stroke-linecap="round"/>
<ellipse cx="104" cy="106" rx="7" ry="6.1" fill="#3f505d" opacity="0.35" transform="rotate(-11 104 106)"/>
<path d="M97 105c4.8999999999999995 3.15 9.1 3.5 14 0" fill="none" stroke="#fff" stroke-opacity="0.12" stroke-width="3" stroke-linecap="round"/>
<ellipse cx="114" cy="159" rx="16" ry="12.8" fill="#3f505d" opacity="0.24" transform="rotate(19 114 159)"/>
<path d="M98 158c11.2 7.2 20.8 8.0 32 0" fill="none" stroke="#fff" stroke-opacity="0.12" stroke-width="3" stroke-linecap="round"/>
<ellipse cx="186" cy="158" rx="14" ry="8.3" fill="#3f505d" opacity="0.29" transform="rotate(17 186 158)"/>
<path d="M172 157c9.799999999999999 6.3 18.2 7.0 28 0" fill="none" stroke="#fff" stroke-opacity="0.12" stroke-width="2" stroke-linecap="round"/>
<ellipse cx="150" cy="150" rx="16" ry="10.4" fill="#3f505d" opacity="0.38" transform="rotate(-26 150 150)"/>
<path d="M134 149c11.2 7.2 20.8 8.0 32 0" fill="none" stroke="#fff" stroke-opacity="0.12" stroke-width="1" stroke-linecap="round"/>
<ellipse cx="167" cy="95" rx="9" ry="7.0" fill="#3f505d" opacity="0.37" transform="rotate(13 167 95)"/>
<path d="M158 94c6.3 4.05 11.700000000000001 4.5 18 0" fill="none" stroke="#fff" stroke-opacity="0.12" stroke-width="1" stroke-linecap="round"/>
<ellipse cx="112" cy="146" rx="15" ry="9.1" fill="#3f505d" opacity="0.25" transform="rotate(0 112 146)"/>
<path d="M97 145c10.5 6.75 19.5 7.5 30 0" fill="none" stroke="#fff" stroke-opacity="0.12" stroke-width="3" stroke-linecap="round"/>
<ellipse cx="127" cy="172" rx="13" ry="8.0" fill="#3f505d" opacity="0.23" transform="rotate(-21 127 172)"/>
<path d="M114 171c9.1 5.8500000000000005 16.900000000000002 6.5 26 0" fill="none" stroke="#fff" stroke-opacity="0.12" stroke-width="3" stroke-linecap="round"/>

  <polygon points="125,44 133,72 127.8,79.0 118.2,75.4" fill="#d8fbff" fill-opacity="0.78" stroke="#fff" stroke-opacity="0.34" stroke-width="1.4" transform="rotate(-6 125 72)"/>
<polygon points="130,59 138,77 132.8,81.5 123.2,79.2" fill="#a7f3ff" fill-opacity="0.78" stroke="#fff" stroke-opacity="0.34" stroke-width="1.4" transform="rotate(23 130 77)"/>
<polygon points="172,144 188,170 177.6,176.5 158.4,173.1" fill="#8dd0f7" fill-opacity="0.78" stroke="#fff" stroke-opacity="0.34" stroke-width="1.4" transform="rotate(-24 172 170)"/>

  <path d="M58 188c38 30 95 36 140 3" fill="none" stroke="#6ee7ff" stroke-width="6" stroke-linecap="round" stroke-opacity="0.72"/>
  <circle cx="52" cy="58" r="3" fill="#fff" opacity="0.7"/>
  <circle cx="209" cy="64" r="2.5" fill="#fff" opacity="0.55"/>
  <circle cx="213" cy="207" r="2" fill="#fff" opacity="0.5"/>
  <title>Quartz Belt</title>
</symbol>
<symbol id="asteroid_iron_tumblers" viewBox="0 0 256 256">
  <defs>
    <radialGradient id="bg-asteroid_iron_tumblers" cx="35%" cy="28%" r="80%">
      <stop offset="0" stop-color="#ffb66e" stop-opacity="0.22"/>
      <stop offset="0.45" stop-color="#0b1720" stop-opacity="0.08"/>
      <stop offset="1" stop-color="#05080d" stop-opacity="0.28"/>
    </radialGradient>
    <linearGradient id="rock-asteroid_iron_tumblers" x1="62" y1="48" x2="190" y2="210">
      <stop offset="0" stop-color="#94634f"/>
      <stop offset="1" stop-color="#4c3029"/>
    </linearGradient>
    <filter id="shadow-asteroid_iron_tumblers" x="-25%" y="-25%" width="150%" height="150%">
      <feDropShadow dx="0" dy="12" stdDeviation="12" flood-color="#041015" flood-opacity="0.42"/>
    </filter>
  </defs>
  <rect width="256" height="256" rx="28" fill="url(#bg-asteroid_iron_tumblers)"/>
  <circle cx="128" cy="128" r="102" fill="none" stroke="#ffb66e" stroke-opacity="0.22" stroke-width="2"/>
  <circle cx="128" cy="128" r="78" fill="none" stroke="#fff" stroke-opacity="0.13" stroke-width="2" stroke-dasharray="23 12"/>
  <polygon points="200.4,124.2 197.5,150.2 184.7,164.4 171.6,188.4 146.3,194.9 128.1,196.9 118.3,203.9 97.6,181.3 83.0,167.1 60.2,164.7 61.9,136.4 74.3,121.7 75.7,102.9 75.0,85.5 90.9,72.3 119.0,71.0 129.6,72.1 149.9,73.1 166.5,68.5 192.0,95.3 198.2,106.1" fill="url(#rock-asteroid_iron_tumblers)" filter="url(#shadow-asteroid_iron_tumblers)"/>
  <polygon points="200.4,124.2 197.5,150.2 184.7,164.4 171.6,188.4 146.3,194.9 128.1,196.9 118.3,203.9 97.6,181.3 83.0,167.1 60.2,164.7 61.9,136.4 74.3,121.7 75.7,102.9 75.0,85.5 90.9,72.3 119.0,71.0 129.6,72.1 149.9,73.1 166.5,68.5 192.0,95.3 198.2,106.1" fill="none" stroke="#fff" stroke-opacity="0.16" stroke-width="2"/>
  <ellipse cx="146" cy="176" rx="10" ry="7.4" fill="#4c3029" opacity="0.28" transform="rotate(-6 146 176)"/>
<path d="M136 175c7.0 4.5 13.0 5.0 20 0" fill="none" stroke="#fff" stroke-opacity="0.12" stroke-width="2" stroke-linecap="round"/>
<ellipse cx="138" cy="108" rx="10" ry="8.2" fill="#4c3029" opacity="0.28" transform="rotate(-11 138 108)"/>
<path d="M128 107c7.0 4.5 13.0 5.0 20 0" fill="none" stroke="#fff" stroke-opacity="0.12" stroke-width="3" stroke-linecap="round"/>
<ellipse cx="135" cy="177" rx="10" ry="8.2" fill="#4c3029" opacity="0.31" transform="rotate(27 135 177)"/>
<path d="M125 176c7.0 4.5 13.0 5.0 20 0" fill="none" stroke="#fff" stroke-opacity="0.12" stroke-width="3" stroke-linecap="round"/>
<ellipse cx="173" cy="99" rx="12" ry="7.2" fill="#4c3029" opacity="0.29" transform="rotate(-5 173 99)"/>
<path d="M161 98c8.399999999999999 5.4 15.600000000000001 6.0 24 0" fill="none" stroke="#fff" stroke-opacity="0.12" stroke-width="3" stroke-linecap="round"/>
<ellipse cx="179" cy="116" rx="15" ry="9.1" fill="#4c3029" opacity="0.25" transform="rotate(-17 179 116)"/>
<path d="M164 115c10.5 6.75 19.5 7.5 30 0" fill="none" stroke="#fff" stroke-opacity="0.12" stroke-width="2" stroke-linecap="round"/>
<ellipse cx="77" cy="134" rx="9" ry="6.8" fill="#4c3029" opacity="0.26" transform="rotate(11 77 134)"/>
<path d="M68 133c6.3 4.05 11.700000000000001 4.5 18 0" fill="none" stroke="#fff" stroke-opacity="0.12" stroke-width="3" stroke-linecap="round"/>
<ellipse cx="178" cy="141" rx="14" ry="10.9" fill="#4c3029" opacity="0.37" transform="rotate(-21 178 141)"/>
<path d="M164 140c9.799999999999999 6.3 18.2 7.0 28 0" fill="none" stroke="#fff" stroke-opacity="0.12" stroke-width="3" stroke-linecap="round"/>
<ellipse cx="172" cy="132" rx="13" ry="8.6" fill="#4c3029" opacity="0.26" transform="rotate(-20 172 132)"/>
<path d="M159 131c9.1 5.8500000000000005 16.900000000000002 6.5 26 0" fill="none" stroke="#fff" stroke-opacity="0.12" stroke-width="2" stroke-linecap="round"/>
<ellipse cx="170" cy="97" rx="7" ry="5.6" fill="#4c3029" opacity="0.27" transform="rotate(-20 170 97)"/>
<path d="M163 96c4.8999999999999995 3.15 9.1 3.5 14 0" fill="none" stroke="#fff" stroke-opacity="0.12" stroke-width="3" stroke-linecap="round"/>

  <polygon points="166,114 182,140 171.6,146.5 152.4,143.1" fill="#d7a17e" fill-opacity="0.78" stroke="#fff" stroke-opacity="0.34" stroke-width="1.4" transform="rotate(18 166 140)"/>
<polygon points="107,83 118,108 110.9,114.3 97.7,111.0" fill="#bc6e4f" fill-opacity="0.78" stroke="#fff" stroke-opacity="0.34" stroke-width="1.4" transform="rotate(-15 107 108)"/>
<polygon points="105,78 115,98 108.5,103.0 96.5,100.4" fill="#f1d0ab" fill-opacity="0.78" stroke="#fff" stroke-opacity="0.34" stroke-width="1.4" transform="rotate(-11 105 98)"/>
<polygon points="93,39 104,72 96.9,80.3 83.7,76.0" fill="#d7a17e" fill-opacity="0.78" stroke="#fff" stroke-opacity="0.34" stroke-width="1.4" transform="rotate(-7 93 72)"/>
<polygon points="109,111 120,133 112.9,138.5 99.7,135.6" fill="#bc6e4f" fill-opacity="0.78" stroke="#fff" stroke-opacity="0.34" stroke-width="1.4" transform="rotate(-8 109 133)"/>
<polygon points="150,82 165,100 155.3,104.5 137.3,102.2" fill="#f1d0ab" fill-opacity="0.78" stroke="#fff" stroke-opacity="0.34" stroke-width="1.4" transform="rotate(-2 150 100)"/>

  <path d="M58 188c38 30 95 36 140 3" fill="none" stroke="#ffb66e" stroke-width="6" stroke-linecap="round" stroke-opacity="0.72"/>
  <circle cx="52" cy="58" r="3" fill="#fff" opacity="0.7"/>
  <circle cx="209" cy="64" r="2.5" fill="#fff" opacity="0.55"/>
  <circle cx="213" cy="207" r="2" fill="#fff" opacity="0.5"/>
  <title>Iron Tumblers</title>
</symbol>
<symbol id="asteroid_sapphire_debris_field" viewBox="0 0 256 256">
  <defs>
    <radialGradient id="bg-asteroid_sapphire_debris_field" cx="35%" cy="28%" r="80%">
      <stop offset="0" stop-color="#6ea8ff" stop-opacity="0.22"/>
      <stop offset="0.45" stop-color="#0b1720" stop-opacity="0.08"/>
      <stop offset="1" stop-color="#05080d" stop-opacity="0.28"/>
    </radialGradient>
    <linearGradient id="rock-asteroid_sapphire_debris_field" x1="62" y1="48" x2="190" y2="210">
      <stop offset="0" stop-color="#536c98"/>
      <stop offset="1" stop-color="#202e56"/>
    </linearGradient>
    <filter id="shadow-asteroid_sapphire_debris_field" x="-25%" y="-25%" width="150%" height="150%">
      <feDropShadow dx="0" dy="12" stdDeviation="12" flood-color="#041015" flood-opacity="0.42"/>
    </filter>
  </defs>
  <rect width="256" height="256" rx="28" fill="url(#bg-asteroid_sapphire_debris_field)"/>
  <circle cx="128" cy="128" r="102" fill="none" stroke="#6ea8ff" stroke-opacity="0.22" stroke-width="2"/>
  <circle cx="128" cy="128" r="78" fill="none" stroke="#fff" stroke-opacity="0.13" stroke-width="2" stroke-dasharray="19 12"/>
  <polygon points="198.1,123.8 181.2,156.6 182.5,178.2 167.4,184.4 146.0,209.4 121.6,195.5 96.5,189.6 79.5,185.3 75.2,158.5 46.4,135.4 58.2,117.1 76.7,96.7 81.1,80.2 95.8,59.6 125.2,47.9 149.4,53.7 174.0,72.5 177.0,82.3 190.7,110.5" fill="url(#rock-asteroid_sapphire_debris_field)" filter="url(#shadow-asteroid_sapphire_debris_field)"/>
  <polygon points="198.1,123.8 181.2,156.6 182.5,178.2 167.4,184.4 146.0,209.4 121.6,195.5 96.5,189.6 79.5,185.3 75.2,158.5 46.4,135.4 58.2,117.1 76.7,96.7 81.1,80.2 95.8,59.6 125.2,47.9 149.4,53.7 174.0,72.5 177.0,82.3 190.7,110.5" fill="none" stroke="#fff" stroke-opacity="0.16" stroke-width="2"/>
  <ellipse cx="130" cy="137" rx="14" ry="10.7" fill="#202e56" opacity="0.35" transform="rotate(-26 130 137)"/>
<path d="M116 136c9.799999999999999 6.3 18.2 7.0 28 0" fill="none" stroke="#fff" stroke-opacity="0.12" stroke-width="3" stroke-linecap="round"/>
<ellipse cx="151" cy="108" rx="8" ry="6.5" fill="#202e56" opacity="0.37" transform="rotate(2 151 108)"/>
<path d="M143 107c5.6 3.6 10.4 4.0 16 0" fill="none" stroke="#fff" stroke-opacity="0.12" stroke-width="3" stroke-linecap="round"/>
<ellipse cx="137" cy="77" rx="17" ry="10.8" fill="#202e56" opacity="0.34" transform="rotate(-7 137 77)"/>
<path d="M120 76c11.899999999999999 7.65 22.1 8.5 34 0" fill="none" stroke="#fff" stroke-opacity="0.12" stroke-width="3" stroke-linecap="round"/>
<ellipse cx="177" cy="146" rx="17" ry="12.6" fill="#202e56" opacity="0.29" transform="rotate(-21 177 146)"/>
<path d="M160 145c11.899999999999999 7.65 22.1 8.5 34 0" fill="none" stroke="#fff" stroke-opacity="0.12" stroke-width="3" stroke-linecap="round"/>
<ellipse cx="76" cy="84" rx="17" ry="12.9" fill="#202e56" opacity="0.37" transform="rotate(-10 76 84)"/>
<path d="M59 83c11.899999999999999 7.65 22.1 8.5 34 0" fill="none" stroke="#fff" stroke-opacity="0.12" stroke-width="2" stroke-linecap="round"/>
<ellipse cx="71" cy="149" rx="7" ry="5.4" fill="#202e56" opacity="0.35" transform="rotate(17 71 149)"/>
<path d="M64 148c4.8999999999999995 3.15 9.1 3.5 14 0" fill="none" stroke="#fff" stroke-opacity="0.12" stroke-width="2" stroke-linecap="round"/>
<ellipse cx="78" cy="157" rx="16" ry="13.6" fill="#202e56" opacity="0.35" transform="rotate(-4 78 157)"/>
<path d="M62 156c11.2 7.2 20.8 8.0 32 0" fill="none" stroke="#fff" stroke-opacity="0.12" stroke-width="3" stroke-linecap="round"/>
<ellipse cx="114" cy="75" rx="10" ry="8.0" fill="#202e56" opacity="0.33" transform="rotate(2 114 75)"/>
<path d="M104 74c7.0 4.5 13.0 5.0 20 0" fill="none" stroke="#fff" stroke-opacity="0.12" stroke-width="3" stroke-linecap="round"/>
<ellipse cx="103" cy="79" rx="12" ry="7.1" fill="#202e56" opacity="0.23" transform="rotate(16 103 79)"/>
<path d="M91 78c8.399999999999999 5.4 15.600000000000001 6.0 24 0" fill="none" stroke="#fff" stroke-opacity="0.12" stroke-width="1" stroke-linecap="round"/>
<ellipse cx="155" cy="132" rx="7" ry="6.2" fill="#202e56" opacity="0.37" transform="rotate(2 155 132)"/>
<path d="M148 131c4.8999999999999995 3.15 9.1 3.5 14 0" fill="none" stroke="#fff" stroke-opacity="0.12" stroke-width="1" stroke-linecap="round"/>

  <polygon points="70,85 78,107 72.8,112.5 63.2,109.6" fill="#9fc7ff" fill-opacity="0.78" stroke="#fff" stroke-opacity="0.34" stroke-width="1.4" transform="rotate(-22 70 107)"/>
<polygon points="125,143 137,171 129.2,178.0 114.8,174.4" fill="#5e8dff" fill-opacity="0.78" stroke="#fff" stroke-opacity="0.34" stroke-width="1.4" transform="rotate(-15 125 171)"/>
<polygon points="88,77 100,97 92.2,102.0 77.8,99.4" fill="#e8f3ff" fill-opacity="0.78" stroke="#fff" stroke-opacity="0.34" stroke-width="1.4" transform="rotate(-16 88 97)"/>

  <path d="M58 188c38 30 95 36 140 3" fill="none" stroke="#6ea8ff" stroke-width="6" stroke-linecap="round" stroke-opacity="0.72"/>
  <circle cx="52" cy="58" r="3" fill="#fff" opacity="0.7"/>
  <circle cx="209" cy="64" r="2.5" fill="#fff" opacity="0.55"/>
  <circle cx="213" cy="207" r="2" fill="#fff" opacity="0.5"/>
  <title>Sapphire Debris Field</title>
</symbol>
<symbol id="asteroid_ember_rocks" viewBox="0 0 256 256">
  <defs>
    <radialGradient id="bg-asteroid_ember_rocks" cx="35%" cy="28%" r="80%">
      <stop offset="0" stop-color="#ff6f3d" stop-opacity="0.22"/>
      <stop offset="0.45" stop-color="#0b1720" stop-opacity="0.08"/>
      <stop offset="1" stop-color="#05080d" stop-opacity="0.28"/>
    </radialGradient>
    <linearGradient id="rock-asteroid_ember_rocks" x1="62" y1="48" x2="190" y2="210">
      <stop offset="0" stop-color="#884839"/>
      <stop offset="1" stop-color="#341a1a"/>
    </linearGradient>
    <filter id="shadow-asteroid_ember_rocks" x="-25%" y="-25%" width="150%" height="150%">
      <feDropShadow dx="0" dy="12" stdDeviation="12" flood-color="#041015" flood-opacity="0.42"/>
    </filter>
  </defs>
  <rect width="256" height="256" rx="28" fill="url(#bg-asteroid_ember_rocks)"/>
  <circle cx="128" cy="128" r="102" fill="none" stroke="#ff6f3d" stroke-opacity="0.22" stroke-width="2"/>
  <circle cx="128" cy="128" r="78" fill="none" stroke="#fff" stroke-opacity="0.13" stroke-width="2" stroke-dasharray="16 12"/>
  <polygon points="182.6,123.3 187.6,141.9 173.1,166.9 169.2,181.6 150.0,199.8 139.2,186.2 116.7,202.5 95.6,179.1 80.5,190.7 84.2,163.2 55.3,149.3 61.8,126.2 67.1,112.3 71.4,85.0 81.4,77.5 105.8,56.6 116.8,68.3 133.5,61.5 158.7,68.3 174.3,67.4 188.4,94.8 191.0,107.8" fill="url(#rock-asteroid_ember_rocks)" filter="url(#shadow-asteroid_ember_rocks)"/>
  <polygon points="182.6,123.3 187.6,141.9 173.1,166.9 169.2,181.6 150.0,199.8 139.2,186.2 116.7,202.5 95.6,179.1 80.5,190.7 84.2,163.2 55.3,149.3 61.8,126.2 67.1,112.3 71.4,85.0 81.4,77.5 105.8,56.6 116.8,68.3 133.5,61.5 158.7,68.3 174.3,67.4 188.4,94.8 191.0,107.8" fill="none" stroke="#fff" stroke-opacity="0.16" stroke-width="2"/>
  <ellipse cx="152" cy="72" rx="9" ry="6.0" fill="#341a1a" opacity="0.3" transform="rotate(-21 152 72)"/>
<path d="M143 71c6.3 4.05 11.700000000000001 4.5 18 0" fill="none" stroke="#fff" stroke-opacity="0.12" stroke-width="3" stroke-linecap="round"/>
<ellipse cx="172" cy="139" rx="12" ry="8.9" fill="#341a1a" opacity="0.34" transform="rotate(13 172 139)"/>
<path d="M160 138c8.399999999999999 5.4 15.600000000000001 6.0 24 0" fill="none" stroke="#fff" stroke-opacity="0.12" stroke-width="2" stroke-linecap="round"/>
<ellipse cx="172" cy="152" rx="13" ry="9.2" fill="#341a1a" opacity="0.24" transform="rotate(14 172 152)"/>
<path d="M159 151c9.1 5.8500000000000005 16.900000000000002 6.5 26 0" fill="none" stroke="#fff" stroke-opacity="0.12" stroke-width="1" stroke-linecap="round"/>
<ellipse cx="116" cy="138" rx="9" ry="7.9" fill="#341a1a" opacity="0.29" transform="rotate(-12 116 138)"/>
<path d="M107 137c6.3 4.05 11.700000000000001 4.5 18 0" fill="none" stroke="#fff" stroke-opacity="0.12" stroke-width="1" stroke-linecap="round"/>
<ellipse cx="93" cy="116" rx="13" ry="8.7" fill="#341a1a" opacity="0.23" transform="rotate(-5 93 116)"/>
<path d="M80 115c9.1 5.8500000000000005 16.900000000000002 6.5 26 0" fill="none" stroke="#fff" stroke-opacity="0.12" stroke-width="1" stroke-linecap="round"/>
<ellipse cx="162" cy="76" rx="8" ry="5.5" fill="#341a1a" opacity="0.24" transform="rotate(4 162 76)"/>
<path d="M154 75c5.6 3.6 10.4 4.0 16 0" fill="none" stroke="#fff" stroke-opacity="0.12" stroke-width="1" stroke-linecap="round"/>
<ellipse cx="94" cy="106" rx="13" ry="11.0" fill="#341a1a" opacity="0.38" transform="rotate(21 94 106)"/>
<path d="M81 105c9.1 5.8500000000000005 16.900000000000002 6.5 26 0" fill="none" stroke="#fff" stroke-opacity="0.12" stroke-width="3" stroke-linecap="round"/>
<ellipse cx="100" cy="105" rx="8" ry="6.2" fill="#341a1a" opacity="0.36" transform="rotate(20 100 105)"/>
<path d="M92 104c5.6 3.6 10.4 4.0 16 0" fill="none" stroke="#fff" stroke-opacity="0.12" stroke-width="2" stroke-linecap="round"/>
<ellipse cx="174" cy="158" rx="13" ry="8.1" fill="#341a1a" opacity="0.25" transform="rotate(-1 174 158)"/>
<path d="M161 157c9.1 5.8500000000000005 16.900000000000002 6.5 26 0" fill="none" stroke="#fff" stroke-opacity="0.12" stroke-width="3" stroke-linecap="round"/>

  <polygon points="170,65 182,96 174.2,103.8 159.8,99.7" fill="#ffcc66" fill-opacity="0.78" stroke="#fff" stroke-opacity="0.34" stroke-width="1.4" transform="rotate(17 170 96)"/>
<polygon points="102,40 115,69 106.6,76.3 91.0,72.5" fill="#ff8a4b" fill-opacity="0.78" stroke="#fff" stroke-opacity="0.34" stroke-width="1.4" transform="rotate(24 102 69)"/>
<polygon points="168,147 181,172 172.6,178.3 157.0,175.0" fill="#ffe2a6" fill-opacity="0.78" stroke="#fff" stroke-opacity="0.34" stroke-width="1.4" transform="rotate(-6 168 172)"/>

  <path d="M58 188c38 30 95 36 140 3" fill="none" stroke="#ff6f3d" stroke-width="6" stroke-linecap="round" stroke-opacity="0.72"/>
  <circle cx="52" cy="58" r="3" fill="#fff" opacity="0.7"/>
  <circle cx="209" cy="64" r="2.5" fill="#fff" opacity="0.55"/>
  <circle cx="213" cy="207" r="2" fill="#fff" opacity="0.5"/>
  <title>Ember Rocks</title>
</symbol>
<symbol id="asteroid_amethyst_archive_belt" viewBox="0 0 256 256">
  <defs>
    <radialGradient id="bg-asteroid_amethyst_archive_belt" cx="35%" cy="28%" r="80%">
      <stop offset="0" stop-color="#cf8dff" stop-opacity="0.22"/>
      <stop offset="0.45" stop-color="#0b1720" stop-opacity="0.08"/>
      <stop offset="1" stop-color="#05080d" stop-opacity="0.28"/>
    </radialGradient>
    <linearGradient id="rock-asteroid_amethyst_archive_belt" x1="62" y1="48" x2="190" y2="210">
      <stop offset="0" stop-color="#6b5a8e"/>
      <stop offset="1" stop-color="#2e214c"/>
    </linearGradient>
    <filter id="shadow-asteroid_amethyst_archive_belt" x="-25%" y="-25%" width="150%" height="150%">
      <feDropShadow dx="0" dy="12" stdDeviation="12" flood-color="#041015" flood-opacity="0.42"/>
    </filter>
  </defs>
  <rect width="256" height="256" rx="28" fill="url(#bg-asteroid_amethyst_archive_belt)"/>
  <circle cx="128" cy="128" r="102" fill="none" stroke="#cf8dff" stroke-opacity="0.22" stroke-width="2"/>
  <circle cx="128" cy="128" r="78" fill="none" stroke="#fff" stroke-opacity="0.13" stroke-width="2" stroke-dasharray="25 12"/>
  <polygon points="187.7,125.1 182.1,144.0 199.1,164.8 173.4,172.1 158.9,188.7 152.8,188.5 127.3,187.0 111.3,184.6 95.8,200.6 75.0,175.6 58.9,163.5 47.9,151.5 58.7,130.7 69.7,114.9 52.7,94.2 87.4,88.5 99.2,69.7 115.3,64.4 133.4,66.0 150.6,65.4 161.8,63.4 170.1,70.8 191.6,88.3 187.5,113.8" fill="url(#rock-asteroid_amethyst_archive_belt)" filter="url(#shadow-asteroid_amethyst_archive_belt)"/>
  <polygon points="187.7,125.1 182.1,144.0 199.1,164.8 173.4,172.1 158.9,188.7 152.8,188.5 127.3,187.0 111.3,184.6 95.8,200.6 75.0,175.6 58.9,163.5 47.9,151.5 58.7,130.7 69.7,114.9 52.7,94.2 87.4,88.5 99.2,69.7 115.3,64.4 133.4,66.0 150.6,65.4 161.8,63.4 170.1,70.8 191.6,88.3 187.5,113.8" fill="none" stroke="#fff" stroke-opacity="0.16" stroke-width="2"/>
  <ellipse cx="112" cy="168" rx="17" ry="12.4" fill="#2e214c" opacity="0.24" transform="rotate(8 112 168)"/>
<path d="M95 167c11.899999999999999 7.65 22.1 8.5 34 0" fill="none" stroke="#fff" stroke-opacity="0.12" stroke-width="3" stroke-linecap="round"/>
<ellipse cx="72" cy="147" rx="12" ry="10.3" fill="#2e214c" opacity="0.32" transform="rotate(-26 72 147)"/>
<path d="M60 146c8.399999999999999 5.4 15.600000000000001 6.0 24 0" fill="none" stroke="#fff" stroke-opacity="0.12" stroke-width="3" stroke-linecap="round"/>
<ellipse cx="99" cy="100" rx="8" ry="6.2" fill="#2e214c" opacity="0.31" transform="rotate(-1 99 100)"/>
<path d="M91 99c5.6 3.6 10.4 4.0 16 0" fill="none" stroke="#fff" stroke-opacity="0.12" stroke-width="2" stroke-linecap="round"/>
<ellipse cx="147" cy="150" rx="17" ry="13.2" fill="#2e214c" opacity="0.22" transform="rotate(13 147 150)"/>
<path d="M130 149c11.899999999999999 7.65 22.1 8.5 34 0" fill="none" stroke="#fff" stroke-opacity="0.12" stroke-width="1" stroke-linecap="round"/>
<ellipse cx="81" cy="155" rx="7" ry="4.1" fill="#2e214c" opacity="0.25" transform="rotate(18 81 155)"/>
<path d="M74 154c4.8999999999999995 3.15 9.1 3.5 14 0" fill="none" stroke="#fff" stroke-opacity="0.12" stroke-width="1" stroke-linecap="round"/>
<ellipse cx="171" cy="122" rx="8" ry="6.2" fill="#2e214c" opacity="0.23" transform="rotate(-14 171 122)"/>
<path d="M163 121c5.6 3.6 10.4 4.0 16 0" fill="none" stroke="#fff" stroke-opacity="0.12" stroke-width="3" stroke-linecap="round"/>
<ellipse cx="153" cy="143" rx="17" ry="12.3" fill="#2e214c" opacity="0.3" transform="rotate(-24 153 143)"/>
<path d="M136 142c11.899999999999999 7.65 22.1 8.5 34 0" fill="none" stroke="#fff" stroke-opacity="0.12" stroke-width="2" stroke-linecap="round"/>
<ellipse cx="142" cy="133" rx="12" ry="9.7" fill="#2e214c" opacity="0.37" transform="rotate(-21 142 133)"/>
<path d="M130 132c8.399999999999999 5.4 15.600000000000001 6.0 24 0" fill="none" stroke="#fff" stroke-opacity="0.12" stroke-width="2" stroke-linecap="round"/>

  <polygon points="97,106 107,135 100.5,142.3 88.5,138.5" fill="#d6b2ff" fill-opacity="0.78" stroke="#fff" stroke-opacity="0.34" stroke-width="1.4" transform="rotate(-21 97 135)"/>
<polygon points="125,53 139,85 129.9,93.0 113.1,88.8" fill="#a56dff" fill-opacity="0.78" stroke="#fff" stroke-opacity="0.34" stroke-width="1.4" transform="rotate(13 125 85)"/>
<polygon points="119,120 130,149 122.9,156.3 109.7,152.5" fill="#f0dcff" fill-opacity="0.78" stroke="#fff" stroke-opacity="0.34" stroke-width="1.4" transform="rotate(1 119 149)"/>

  <path d="M58 188c38 30 95 36 140 3" fill="none" stroke="#cf8dff" stroke-width="6" stroke-linecap="round" stroke-opacity="0.72"/>
  <circle cx="52" cy="58" r="3" fill="#fff" opacity="0.7"/>
  <circle cx="209" cy="64" r="2.5" fill="#fff" opacity="0.55"/>
  <circle cx="213" cy="207" r="2" fill="#fff" opacity="0.5"/>
  <title>Amethyst Archive Belt</title>
</symbol>
<symbol id="asteroid_diamond_class_body" viewBox="0 0 256 256">
  <defs>
    <radialGradient id="bg-asteroid_diamond_class_body" cx="35%" cy="28%" r="80%">
      <stop offset="0" stop-color="#f8fbff" stop-opacity="0.22"/>
      <stop offset="0.45" stop-color="#0b1720" stop-opacity="0.08"/>
      <stop offset="1" stop-color="#05080d" stop-opacity="0.28"/>
    </radialGradient>
    <linearGradient id="rock-asteroid_diamond_class_body" x1="62" y1="48" x2="190" y2="210">
      <stop offset="0" stop-color="#a8bac7"/>
      <stop offset="1" stop-color="#485967"/>
    </linearGradient>
    <filter id="shadow-asteroid_diamond_class_body" x="-25%" y="-25%" width="150%" height="150%">
      <feDropShadow dx="0" dy="12" stdDeviation="12" flood-color="#041015" flood-opacity="0.42"/>
    </filter>
  </defs>
  <rect width="256" height="256" rx="28" fill="url(#bg-asteroid_diamond_class_body)"/>
  <circle cx="128" cy="128" r="102" fill="none" stroke="#f8fbff" stroke-opacity="0.22" stroke-width="2"/>
  <circle cx="128" cy="128" r="78" fill="none" stroke="#fff" stroke-opacity="0.13" stroke-width="2" stroke-dasharray="19 12"/>
  <polygon points="214.4,122.3 189.8,141.9 186.1,162.1 171.7,182.4 162.7,181.8 140.3,192.3 122.5,202.6 103.7,187.0 84.0,189.7 77.0,180.3 59.5,159.0 65.1,141.7 52.6,122.3 65.9,99.9 77.2,79.3 79.6,61.2 103.3,70.5 123.4,55.0 139.4,65.0 170.6,60.6 168.8,72.5 188.8,91.2 193.8,107.9" fill="url(#rock-asteroid_diamond_class_body)" filter="url(#shadow-asteroid_diamond_class_body)"/>
  <polygon points="214.4,122.3 189.8,141.9 186.1,162.1 171.7,182.4 162.7,181.8 140.3,192.3 122.5,202.6 103.7,187.0 84.0,189.7 77.0,180.3 59.5,159.0 65.1,141.7 52.6,122.3 65.9,99.9 77.2,79.3 79.6,61.2 103.3,70.5 123.4,55.0 139.4,65.0 170.6,60.6 168.8,72.5 188.8,91.2 193.8,107.9" fill="none" stroke="#fff" stroke-opacity="0.16" stroke-width="2"/>
  <ellipse cx="180" cy="112" rx="16" ry="10.3" fill="#485967" opacity="0.27" transform="rotate(11 180 112)"/>
<path d="M164 111c11.2 7.2 20.8 8.0 32 0" fill="none" stroke="#fff" stroke-opacity="0.12" stroke-width="3" stroke-linecap="round"/>
<ellipse cx="125" cy="120" rx="13" ry="8.8" fill="#485967" opacity="0.24" transform="rotate(27 125 120)"/>
<path d="M112 119c9.1 5.8500000000000005 16.900000000000002 6.5 26 0" fill="none" stroke="#fff" stroke-opacity="0.12" stroke-width="1" stroke-linecap="round"/>
<ellipse cx="168" cy="127" rx="15" ry="9.7" fill="#485967" opacity="0.33" transform="rotate(0 168 127)"/>
<path d="M153 126c10.5 6.75 19.5 7.5 30 0" fill="none" stroke="#fff" stroke-opacity="0.12" stroke-width="1" stroke-linecap="round"/>
<ellipse cx="114" cy="104" rx="15" ry="11.1" fill="#485967" opacity="0.26" transform="rotate(-27 114 104)"/>
<path d="M99 103c10.5 6.75 19.5 7.5 30 0" fill="none" stroke="#fff" stroke-opacity="0.12" stroke-width="1" stroke-linecap="round"/>
<ellipse cx="98" cy="163" rx="12" ry="10.8" fill="#485967" opacity="0.34" transform="rotate(-9 98 163)"/>
<path d="M86 162c8.399999999999999 5.4 15.600000000000001 6.0 24 0" fill="none" stroke="#fff" stroke-opacity="0.12" stroke-width="1" stroke-linecap="round"/>
<ellipse cx="176" cy="129" rx="7" ry="5.6" fill="#485967" opacity="0.25" transform="rotate(23 176 129)"/>
<path d="M169 128c4.8999999999999995 3.15 9.1 3.5 14 0" fill="none" stroke="#fff" stroke-opacity="0.12" stroke-width="1" stroke-linecap="round"/>
<ellipse cx="87" cy="162" rx="9" ry="6.2" fill="#485967" opacity="0.32" transform="rotate(14 87 162)"/>
<path d="M78 161c6.3 4.05 11.700000000000001 4.5 18 0" fill="none" stroke="#fff" stroke-opacity="0.12" stroke-width="2" stroke-linecap="round"/>
<ellipse cx="139" cy="82" rx="13" ry="11.6" fill="#485967" opacity="0.26" transform="rotate(18 139 82)"/>
<path d="M126 81c9.1 5.8500000000000005 16.900000000000002 6.5 26 0" fill="none" stroke="#fff" stroke-opacity="0.12" stroke-width="3" stroke-linecap="round"/>

  <polygon points="119,115 135,135 124.6,140.0 105.4,137.4" fill="#ffffff" fill-opacity="0.78" stroke="#fff" stroke-opacity="0.34" stroke-width="1.4" transform="rotate(2 119 135)"/>
<polygon points="170,114 183,134 174.6,139.0 159.0,136.4" fill="#c8f4ff" fill-opacity="0.78" stroke="#fff" stroke-opacity="0.34" stroke-width="1.4" transform="rotate(4 170 134)"/>
<polygon points="74,95 88,121 78.9,127.5 62.1,124.1" fill="#f6e8ff" fill-opacity="0.78" stroke="#fff" stroke-opacity="0.34" stroke-width="1.4" transform="rotate(-12 74 121)"/>
<polygon points="112,34 127,66 117.3,74.0 99.3,69.8" fill="#ffffff" fill-opacity="0.78" stroke="#fff" stroke-opacity="0.34" stroke-width="1.4" transform="rotate(1 112 66)"/>
<polygon points="157,131 170,161 161.6,168.5 146.0,164.6" fill="#c8f4ff" fill-opacity="0.78" stroke="#fff" stroke-opacity="0.34" stroke-width="1.4" transform="rotate(14 157 161)"/>

  <path d="M58 188c38 30 95 36 140 3" fill="none" stroke="#f8fbff" stroke-width="6" stroke-linecap="round" stroke-opacity="0.72"/>
  <circle cx="52" cy="58" r="3" fill="#fff" opacity="0.7"/>
  <circle cx="209" cy="64" r="2.5" fill="#fff" opacity="0.55"/>
  <circle cx="213" cy="207" r="2" fill="#fff" opacity="0.5"/>
  <title>Diamond-Class Body</title>
</symbol>
</svg>
