<svg xmlns="http://www.w3.org/2000/svg" viewBox="0 0 240 240" role="img" aria-label="Asteroid scan">
  <rect width="240" height="240" rx="18" fill="#e8eee9"/>
  <circle cx="120" cy="120" r="82" fill="none" stroke="#9fb2aa" stroke-width="2"/>
  <circle cx="120" cy="120" r="54" fill="none" stroke="#c3cec8" stroke-width="2"/>
  <path d="M53 120h134M120 53v134" stroke="#c3cec8" stroke-width="2" stroke-linecap="round"/>
  <path d="M83 82c18-24 58-19 75 4 20 28 6 65-23 76-28 11-62-4-70-34-5-18 7-34 18-46Z" fill="#8f8170"/>
  <path d="M96 88c16-8 38-3 50 12 12 16 8 38-7 50-16 13-42 7-53-11-10-16-7-39 10-51Z" fill="#aa9a83"/>
  <circle cx="100" cy="112" r="8" fill="#6e655b"/>
  <circle cx="134" cy="100" r="6" fill="#6e655b"/>
  <circle cx="142" cy="134" r="10" fill="#756a5f"/>
  <path d="M74 154c26 24 67 30 99 4" fill="none" stroke="#1f7a5a" stroke-width="7" stroke-linecap="round"/>
  <path d="M175 69l12-12M59 181l-11 11M185 184l10 10M56 57l-10-10" stroke="#2d5b91" stroke-width="5" stroke-linecap="round"/>
</svg>
